<svg version="1" xmlns="http://www.w3.org/2000/svg" width="2001.333" height="2001.333" viewBox="0 0 1501.000000 1501.000000"><path d="M648 157.6c-9.5 2-21.5 6.1-29.5 10.1-7.4 3.7-34.2 19.7-59 35.2-4.9 3.1-9.7 6-10.7 6.6-.9.5-6.1 3.7-11.5 7s-10.6 6.4-11.5 7c-2.3 1.3-21.6 13.2-34.3 21-21.8 13.5-55.1 33.9-57 34.9-1.1.6-3.4 2.1-5.2 3.3-1.7 1.3-3.3 2.3-3.6 2.3-.3 0-4.1 2.2-8.4 4.9-4.3 2.8-10.7 6.7-14.3 8.9-3.6 2.1-23.6 14.4-44.5 27.2-20.9 12.8-48 29.4-60.3 36.9-32.3 19.7-41.8 26.8-59.3 44.1-7.6 7.5-11.5 11.7-20.3 22-9.3 10.9-23.8 32.9-32.3 49-6.9 13-16.5 35.9-18.8 45-.2.8-1.6 5.8-3 11-5.1 18.1-5.1 15.1-4.9 219.4 0 105.1.4 193.1.8 195.6 5.4 35.5 26 81.3 51.8 115.4 15 19.8 34.1 39.1 51.8 52.3 7 5.2 34.5 22.7 51.8 32.8.9.6 5 3 9 5.5s10.6 6.5 14.7 9 14.4 8.7 22.7 13.9c29.2 17.9 44.9 27.6 46.6 28.6 1 .5 5.1 3.1 9.2 5.6 4.1 2.5 15.8 9.7 26 15.9 10.2 6.2 27.3 16.7 38 23.3 10.7 6.6 27.6 17 37.5 23 17.2 10.6 25 15.3 66.5 40.7 10.2 6.2 21.2 12.9 24.5 14.8 9.9 5.7 26.2 12.1 35 13.8 1.1.2 3.1.6 4.5.9 5 1.1 19.6 1.3 25 .4 9-1.7 21-6.3 21-8.1 0-.4.6-.8 1.3-.8.6 0 3.4-2.1 6.1-4.8 10.8-10.4 17.5-25.2 19.3-42.5.9-8.5.9-267.8-.1-274.8-.3-3.1-.8-6.5-1-7.5-.2-1.1-.7-4.4-1-7.5-.4-3.1-.8-6.5-1-7.5-.2-1.1-.7-4.8-1.1-8.4-.3-3.6-.8-7.2-1-8-.3-.8-.7-3.8-1-6.5-.2-2.8-.7-6.1-.9-7.5-.5-3.2-1.7-12.3-3.1-23-.3-2.5-.7-5.4-.9-6.5-.2-1.1-.7-4.5-1-7.6-.4-3.1-.9-6.7-1.1-7.9-.2-1.3-.7-5-1-8.3-.3-3.3-.7-6.3-.9-6.6-.2-.3-.7-3.3-1-6.6-.3-3.3-.8-6.9-1-8-.2-1.1-.7-4.5-1-7.6-.4-3.1-.8-6.5-1-7.5-.2-1.1-.7-4.8-1.1-8.4-.3-3.6-.8-7.2-1-8-.2-.8-.7-3.8-1-6.5-1.4-12.5-2-14.1-5.3-15.3-3.5-1.2-3.1-1.3-21.7 4.8-26.6 8.6-47.8 15.4-73 23.5-13.2 4.3-28.5 9.2-34 11-5.5 1.8-21.5 7-35.5 11.5-27.4 8.8-59.8 19.3-74.8 24.2-5.1 1.6-10.8 3-12.5 3-8.5 0-16.2-7.1-16.1-14.6.2-5.1 2.5-9.8 6.1-12.4 1.6-1.1 15.4-9.7 30.8-19.2s34.5-21.4 42.5-26.3c8-5 19.2-11.9 25-15.5 5.8-3.6 12.8-7.9 15.5-9.7 2.8-1.7 19.1-11.8 36.3-22.5 17.3-10.7 32.6-20.7 34.2-22.3 9.2-9.4 9.2-26.1.1-35.5-2-2.1-9.9-7.6-17.4-12.3-7.6-4.6-16.8-10.3-20.5-12.6-3.7-2.3-7.4-4.6-8.2-5-.8-.3-2.6-1.4-4-2.4s-20.5-12.9-42.5-26.4c-38-23.5-51.2-31.7-81-50.3-13.8-8.6-16.3-11.3-16.9-17.9-.6-6.3 4.4-13 11.4-15.2 4.3-1.3 6.8-.9 20 3.3 5.8 1.9 16.8 5.5 24.5 7.9 7.7 2.5 26.2 8.5 41 13.3 14.9 4.8 27.5 8.9 28 9 .6.1 4.4 1.3 8.5 2.7 4.1 1.4 19 6.2 33 10.7 14 4.5 27.3 8.8 29.5 9.5 18.8 6.5 64.8 20.9 68 21.2 5 .6 7.1-1.4 7.9-7.7.4-2.5.9-6.1 1.2-8 .2-1.9.7-5.1.9-7 .2-1.9.6-5.1.9-7 .3-1.9.8-5.3 1.1-7.5 1.1-9.3 1.7-14.1 2-15.5.2-.9.6-4.3 1-7.5.4-3.3.9-6.8 1.1-7.9.2-1 .6-4.4 1-7.5.3-3.1.8-6.3.9-7.1.2-.9.6-4.3 1-7.5.4-3.3.9-6.9 1.1-8 .2-1.1.6-4.4 1-7.3.3-2.9.7-6.1.9-7 .1-.9.6-4.2 1-7.2.3-3 .8-6.6 1-8 .5-3 1.3-9.4 2-15.3.3-2.3.8-5.3 1-6.7.3-1.4.7-4.8 1-7.5.2-2.8 1.3-10.9 2.3-18 1.6-12 1.8-22.8 1.7-146.5-.1-138.3-.1-137.5-4.2-150.5-5.7-18.1-18.7-32-35.3-37.6-8.2-2.8-26.2-3.4-36-1.3zM820.4 157.9c-23.1 6.5-35.9 21.8-42.1 50.1-.4 1.9-.8 64.7-.9 139.5-.2 108.8 0 137.7 1.1 144.5.7 4.7 1.6 10.7 1.9 13.5.3 2.7.8 6.1 1 7.5.1 1.4.6 5 1 8s.9 6.6 1.1 8c.4 2.5 1.1 7.8 2.1 15.5.3 2.2.7 5.1.9 6.5.2 1.4.7 5 1 8 .4 3 .9 6.3 1 7.2.2.9.6 4.1.9 7 .4 2.9.8 6.2 1 7.3.2 1.1.7 4.5 1 7.6.4 3.1.8 6.5 1 7.5.2 1.1.7 4.4 1 7.4.4 3 .8 6.6 1 8 .4 2.3 1.2 8.3 2.1 15.5.4 3.2 2.3 16.9 3 22.2.3 1.8.8 5.7 1.1 8.5.4 2.9.7 5.9.8 6.6.4 2.6 3.6 5.2 6.5 5.2 1.6 0 12.8-3.2 24.8-7.1 12-3.9 35.1-11.3 51.3-16.5 16.2-5.3 30.6-9.9 32-10.4 3.4-1.2 50.4-16.4 51-16.5.7-.1 35.5-11.4 55-17.8 8.5-2.8 15.7-5.1 16-5.2.3-.1 3.8-1.1 7.9-2.4 10-3.1 11-3.2 15.2-2.1 10.6 2.9 15.2 13.8 9.5 22.5-2 3.1-2.8 3.7-24.6 17.1-10.2 6.3-20.5 12.7-23 14.3-2.5 1.6-17.1 10.6-32.5 20.1-15.4 9.5-31.6 19.6-36 22.3-4.4 2.7-9.9 6.2-12.2 7.6-63.5 39.1-60.8 37.2-64.4 45.5-4.1 9.6-2.2 21.3 4.8 28.3 1.5 1.6 15.4 10.7 30.8 20.3 15.4 9.5 33.2 20.6 39.6 24.6 6.4 4 13 8.1 14.8 9.1 1.7 1 7.5 4.5 12.8 7.9 8.8 5.5 39.9 24.8 63.6 39.5 4.8 3 9.5 5.9 10.5 6.4 10.1 6 15.2 9.9 16.7 13.1 3.1 6.5 2 12.3-3.3 17.2-5.4 5.1-11.7 5.5-24.1 1.3-4.7-1.6-21.4-7-37.1-12.1-27.1-8.7-73.9-23.8-110-35.5-9.1-2.9-28.6-9.2-43.5-14-14.8-4.8-30.4-9.8-34.5-11.2-8.6-2.9-13.5-3.3-15.6-1.1-1.3 1.3-3.6 14.4-5.9 32.8-1.2 9.7-1.7 13.7-2 16-1.1 7.9-2.5 18.1-3 22.5-.8 6.7-1.4 10.7-2.5 18.5-.6 3.6-1.2 8.3-1.4 10.5-.2 2.2-.6 5.6-1 7.5-.3 1.9-.8 5.7-1.1 8.5-.7 6-1.3 9.9-2.5 18.5-1.1 7.4-2 14.1-2.6 18.5-1.6 13.6-1.7 13.8-3.1 23.5-1 7-1.1 274.8 0 281.4 6.9 44 41.9 63.2 87.4 48.1 5.5-1.9 13.7-5.2 18-7.4 6.1-3 144.5-87.1 162.3-98.5 1.9-1.3 8.7-5.4 15-9.3 20.5-12.5 48.2-29.5 59-36.1 5.8-3.6 11.4-7 12.5-7.6 1.1-.6 9-5.4 17.5-10.7 8.5-5.3 27.9-17.2 43-26.4 46.2-28.3 49.3-30.5 71.5-52.9 21-21.1 38.7-45.8 52-72.4 7.5-15 15.3-34.2 17-41.8.2-1 1.3-5.1 2.5-9.1 5.1-17.6 4.9-8.4 4.7-220.3-.2-108.6-.6-199.1-1.1-201-2.2-9.7-9.1-32.5-12.8-41.8-7.2-18.5-21.1-44.4-31.1-58-17.8-24.1-27.2-34.8-43.4-49.2-16.1-14.4-16.2-14.4-92.8-61.3-9.9-6-19.6-12-21.5-13.2-1.9-1.2-11.6-7.2-21.5-13.2-9.9-6.1-20.8-12.7-24.3-14.9-3.5-2.1-7.5-4.6-9-5.5-4.2-2.5-65-39.7-71.7-43.9-3.3-2.1-13-8-21.5-13.2-8.5-5.3-19.5-12-24.3-14.9-4.8-3-10-6.1-11.5-7-3.4-2.1-28.2-17.3-34.2-21-4.8-3-15.9-9.7-19-11.4-1-.6-2.4-1.6-3.1-2.1-5.9-4.7-24.7-13.1-37.6-17-11.5-3.5-30.4-4.1-39.9-1.5z"/></svg>